<svg xmlns="http://www.w3.org/2000/svg" viewBox="0 0 64 64">
  <defs>
    <linearGradient id="enemy-bg" x1="0" y1="0" x2="1" y2="1">
      <stop offset="0%" stop-color="#48131c"/>
      <stop offset="100%" stop-color="#16090d"/>
    </linearGradient>
    <linearGradient id="enemy-body" x1="0" y1="0" x2="0" y2="1">
      <stop offset="0%" stop-color="#fb7185"/>
      <stop offset="100%" stop-color="#b91c1c"/>
    </linearGradient>
  </defs>
  <rect width="64" height="64" rx="14" fill="url(#enemy-bg)"/>
  <path d="M18 50C18 36 22 19 32 19C42 19 46 36 46 50C46 54 41 57 32 57C23 57 18 54 18 50Z" fill="url(#enemy-body)"/>
  <path d="M22 22L18 11L28 16L32 9L36 16L46 11L42 22" fill="#fecaca"/>
  <path d="M19 45L12 50L18 54M45 45L52 50L46 54" fill="#7f1d1d"/>
  <ellipse cx="25.5" cy="34" rx="4.5" ry="5.5" fill="#fff7ed"/>
  <ellipse cx="38.5" cy="34" rx="4.5" ry="5.5" fill="#fff7ed"/>
  <circle cx="25.5" cy="34" r="2.2" fill="#111827"/>
  <circle cx="38.5" cy="34" r="2.2" fill="#111827"/>
  <path d="M25 44L29 48L32 44L35 48L39 44" stroke="#2f0f13" stroke-width="2.4" stroke-linecap="round" stroke-linejoin="round" fill="none"/>
  <path d="M28 44L32 50L36 44" stroke="#fff1f2" stroke-width="1.6" stroke-linecap="round" stroke-linejoin="round" fill="none"/>
</svg>
