<svg xmlns="http://www.w3.org/2000/svg" viewBox="0 0 64 64">
  <defs>
    <linearGradient id="npc-bg" x1="0" y1="0" x2="1" y2="1">
      <stop offset="0%" stop-color="#1e293b"/>
      <stop offset="100%" stop-color="#0f172a"/>
    </linearGradient>
    <linearGradient id="npc-robe" x1="0" y1="0" x2="0" y2="1">
      <stop offset="0%" stop-color="#38bdf8"/>
      <stop offset="100%" stop-color="#0f766e"/>
    </linearGradient>
  </defs>
  <rect width="64" height="64" rx="12" fill="url(#npc-bg)"/>
  <path d="M18 55C21 40 25 31 32 31C39 31 43 40 46 55Z" fill="url(#npc-robe)"/>
  <circle cx="32" cy="20" r="8.5" fill="#f5d0a9"/>
  <path d="M23 20L32 10L41 20" fill="#fef3c7"/>
  <path d="M26 31H38L36 51H28Z" fill="#e0f2fe" opacity="0.75"/>
  <circle cx="29" cy="20" r="1.4" fill="#111827"/>
  <circle cx="35" cy="20" r="1.4" fill="#111827"/>
  <path d="M29 24C30 25 34 25 35 24" stroke="#7c2d12" stroke-width="1.4" stroke-linecap="round"/>
  <path d="M44 27L50 23L52 29L46 33Z" fill="#facc15"/>
  <path d="M15 31L21 27L22 35L16 38Z" fill="#cbd5e1" opacity="0.8"/>
</svg>
