<svg xmlns="http://www.w3.org/2000/svg" viewBox="0 0 64 64">
  <defs>
    <linearGradient id="cape" x1="0" y1="0" x2="1" y2="1">
      <stop offset="0%" stop-color="#1d4ed8"/>
      <stop offset="100%" stop-color="#0f172a"/>
    </linearGradient>
    <linearGradient id="armor" x1="0" y1="0" x2="0" y2="1">
      <stop offset="0%" stop-color="#f8fafc"/>
      <stop offset="100%" stop-color="#94a3b8"/>
    </linearGradient>
  </defs>
  <rect width="64" height="64" rx="14" fill="#071b2f"/>
  <path d="M16 54C18 41 24 31 32 31C40 31 46 41 48 54Z" fill="url(#cape)"/>
  <path d="M28 10L32 6L36 10L40 16L24 16Z" fill="#facc15"/>
  <circle cx="32" cy="20" r="9" fill="#f5d0a9"/>
  <path d="M22 52L25 33H39L42 52Z" fill="url(#armor)"/>
  <path d="M25 36L32 29L39 36" fill="#38bdf8"/>
  <rect x="29.5" y="33" width="5" height="17" rx="2.5" fill="#cbd5e1"/>
  <path d="M42 26L48 20L52 24L45 31Z" fill="#e2e8f0"/>
  <path d="M45 31L55 41" stroke="#7dd3fc" stroke-width="4" stroke-linecap="round"/>
  <circle cx="29" cy="20" r="1.7" fill="#0f172a"/>
  <circle cx="35" cy="20" r="1.7" fill="#0f172a"/>
  <path d="M29 24C30.5 25.5 33.5 25.5 35 24" stroke="#7c2d12" stroke-width="1.7" stroke-linecap="round"/>
</svg>
