<svg xmlns="http://www.w3.org/2000/svg" viewBox="0 0 64 64">
  <defs>
    <linearGradient id="portal-bg" x1="0" y1="0" x2="1" y2="1">
      <stop offset="0%" stop-color="#082f49"/>
      <stop offset="100%" stop-color="#06141f"/>
    </linearGradient>
    <linearGradient id="portal-core" x1="0" y1="0" x2="0" y2="1">
      <stop offset="0%" stop-color="#a5f3fc"/>
      <stop offset="100%" stop-color="#0ea5e9"/>
    </linearGradient>
  </defs>
  <rect width="64" height="64" rx="14" fill="url(#portal-bg)"/>
  <ellipse cx="32" cy="33" rx="20" ry="24" fill="#38bdf8" opacity=".16"/>
  <ellipse cx="32" cy="33" rx="16" ry="20" fill="#22d3ee" opacity=".28"/>
  <ellipse cx="32" cy="33" rx="11" ry="15" fill="url(#portal-core)" opacity=".88"/>
  <path d="M20 20L24 15L30 18M44 20L40 15L34 18M18 33H12M46 33H52M22 46L26 51L31 47M42 46L38 51L33 47" stroke="#cffafe" stroke-width="2.4" stroke-linecap="round" stroke-linejoin="round"/>
  <path d="M27 33C27 29 29 25 32 23C35 25 37 29 37 33C37 37 35 41 32 43C29 41 27 37 27 33Z" fill="#e0f2fe" opacity=".72"/>
</svg>
